# xmcd
#
# Track frame offsets:
#	182
#	20492
#	44505
#	62410
#	78685
#	97447
#	121277
#	141642
#	157322
#	170682
#	189187
#	201327
#
# Disc length: 2842 seconds
#
# Revision: 8
# Processed by: cddbd v1.5.2PL0 Copyright (c) Steve Scherf et al.
# Submitted via: audiograbber 1.83.01
#
DISCID=b80b180c
DTITLE=Kris Kristofferson - The Austin Sessions
DYEAR=1999
DGENRE=Country
TTITLE0=Me and Bobby McGee (with Jackson Browne)
TTITLE1=Sunday Morning Coming Down (with Steve Earle)
TTITLE2=For the Good Times (with Matraca Berg)
TTITLE3=The Silver Tongued Devil and I
TTITLE4=Help Me Make It Through The Night (with Vince Gill)
TTITLE5=Loving Her Was Easier (Than Anything I'll Ever Do Again) (with Marc Coh
TTITLE5=n)
TTITLE6=To Beat the Devil
TTITLE7=Who's to Bless and Who's to Blame
TTITLE8=Why Me? (with Vince Gill and Alison Krauss)
TTITLE9=Nobody Wins (with Catie Curtis)
TTITLE10=The Pilgrim: Chapter 33
TTITLE11=Please Don't Tell Me How the Story Ends (with Mark Knopfler)
EXTD=
EXTT0=
EXTT1=
EXTT2=
EXTT3=
EXTT4=
EXTT5=
EXTT6=
EXTT7=
EXTT8=
EXTT9=
EXTT10=
EXTT11=
PLAYORDER=
